<svg xmlns="http://www.w3.org/2000/svg" viewBox="0 0 24 24"><path fill="white" fill-rule="evenodd" d="M3.463,10.813C2.655,10.813 2,10.16 2,9.356L2,5.882C2,5.054 2.528,4.316 3.315,4.046L7.65,2.558C8.347,2.318 9.088,2.864 9.452,3.503C9.97,4.419 10.944,4.985 12,4.985C13.056,4.985 14.03,4.419 14.548,3.503C14.912,2.864 15.653,2.319 16.35,2.558L21.014,4.159C21.604,4.362 22,4.915 22,5.537L22,9.356C22,10.16 21.345,10.813 20.537,10.813L19.317,10.813L19.317,19.557C19.317,20.63 18.443,21.5 17.366,21.5L6.634,21.5C5.557,21.5 4.683,20.63 4.683,19.557L4.683,10.813L3.463,10.813ZM9,15.5Q8.902,15.5 8.805,15.519Q8.708,15.538 8.617,15.576Q8.526,15.614 8.444,15.669Q8.363,15.723 8.293,15.793Q8.223,15.863 8.169,15.944Q8.114,16.026 8.076,16.117Q8.038,16.208 8.019,16.305Q8,16.402 8,16.5Q8,16.598 8.019,16.695Q8.038,16.792 8.076,16.883Q8.114,16.974 8.169,17.056Q8.223,17.137 8.293,17.207Q8.363,17.277 8.444,17.331Q8.526,17.386 8.617,17.424Q8.708,17.462 8.805,17.481Q8.902,17.5 9,17.5L15,17.5Q15.098,17.5 15.195,17.481Q15.292,17.462 15.383,17.424Q15.474,17.386 15.556,17.331Q15.637,17.277 15.707,17.207Q15.777,17.137 15.831,17.056Q15.886,16.974 15.924,16.883Q15.962,16.792 15.981,16.695Q16,16.598 16,16.5Q16,16.402 15.981,16.305Q15.962,16.208 15.924,16.117Q15.886,16.026 15.831,15.944Q15.777,15.863 15.707,15.793Q15.637,15.723 15.556,15.669Q15.474,15.614 15.383,15.576Q15.292,15.538 15.195,15.519Q15.098,15.5 15,15.5L9,15.5Z"/></svg>
